<svg data-v-0dd9719b="" version="1.0" xmlns="http://www.w3.org/2000/svg" xmlns:xlink="http://www.w3.org/1999/xlink" width="100%" height="100%" viewBox="0 0 340.000000 250.000000" preserveAspectRatio="xMidYMid meet" color-interpolation-filters="sRGB" style="margin: auto;"> <rect data-v-0dd9719b="" x="0" y="0" width="100%" height="100%" fill="#fff" fill-opacity="1" class="background"></rect> <rect data-v-0dd9719b="" x="0" y="0" width="100%" height="100%" fill="url(#watermark)" fill-opacity="1" class="watermarklayer"></rect> <g data-v-0dd9719b="" fill="#141011" class="icon-text-wrapper icon-svg-group iconsvg" transform="translate(59.7550048828125,95.01199531555176)"><g class="iconsvg-imagesvg" transform="translate(0,0)"><g><rect fill="#141011" fill-opacity="0" stroke-width="2" x="0" y="0" width="60" height="59.97600959616154" class="image-rect"></rect> <svg x="0" y="0" width="60" height="59.97600959616154" filtersec="colorsb6352896427" class="image-svg-svg primary" style="overflow: visible;"><svg xmlns="http://www.w3.org/2000/svg" viewBox="0 0 75.25 75.22000122070312"><g><g><path d="M37.63 75.22L20.86 58.48l6.33-6.33 10.44 10.43 31.29-31.3 6.33 6.33z" fill="#141011"></path><path fill="#fd1a16" d="M31.29 48.04l27.2-27.18 6.32 6.32-27.18 27.2-6.34-6.34z"></path><path d="M37.63 0l16.76 16.76-6.34 6.32-10.42-10.42L6.34 43.94 0 37.62z" fill="#141011"></path><path fill="#fd1a16" d="M43.95 27.18l-27.19 27.2-6.32-6.34 27.19-27.18 6.32 6.32z"></path></g></g></svg></svg> <!----></g></g> <g transform="translate(67,2.2817535400390625)"><g data-gra="path-name" fill-rule="" class="tp-name iconsvg-namesvg" transform="translate(0,0)"><g transform="scale(1)"><g><path d="M12.01-28.8L3.19-28.8Q2.65-28.8 2.36-29.16 2.07-29.52 2.07-29.92L2.07-29.92Q2.07-30.33 2.36-30.69 2.65-31.05 3.19-31.05L3.19-31.05 12.01-31.05 12.01-34.88Q12.01-35.41 12.38-35.71 12.73-36 13.14-36L13.14-36Q13.54-36 13.9-35.71 14.26-35.41 14.26-34.88L14.26-34.88 14.26-31.05 25.2-31.05 25.2-34.88Q25.2-35.41 25.56-35.71 25.92-36 26.32-36L26.32-36Q26.73-36 27.09-35.71 27.45-35.41 27.45-34.88L27.45-34.88 27.45-31.05 36.23-31.05Q36.77-31.05 37.06-30.69 37.35-30.33 37.35-29.92L37.35-29.92Q37.35-29.52 37.06-29.16 36.77-28.8 36.23-28.8L36.23-28.8 27.45-28.8 27.45-25.61Q27.45-25.06 27.09-24.77 26.73-24.48 26.32-24.48L26.32-24.48Q25.92-24.48 25.56-24.77 25.2-25.06 25.2-25.61L25.2-25.61 25.2-28.8 14.26-28.8 14.26-25.74Q14.26-25.2 13.9-24.91 13.54-24.61 13.14-24.61L13.14-24.61Q12.73-24.61 12.38-24.91 12.01-25.2 12.01-25.74L12.01-25.74 12.01-28.8ZM22.72-20.07Q30.06-20.07 29.7-13.28L29.7-13.28 29.07-2.52Q28.93-0.18 27.92 0.94 26.91 2.07 25.61 2.65L25.61 2.65Q25.52 2.7 25.18 2.83 24.84 2.97 24.39 2.97L24.39 2.97Q23.89 2.97 23.58 2.61 23.27 2.25 23.27 1.84L23.27 1.84Q23.27 1.03 24.12 0.72L24.12 0.72Q25.06 0.4 25.56 0.07 26.05-0.27 26.44-1.15 26.82-2.02 26.91-3.73L26.91-3.73 27.45-12.96Q27.58-15.52 26.53-16.67 25.47-17.82 22.27-17.82L22.27-17.82 17.77-17.82Q17.64-12.87 16.7-9.18 15.75-5.49 13.21-2.14 10.66 1.21 5.94 4.23L5.94 4.23Q5.58 4.46 5.22 4.46L5.22 4.46Q4.63 4.46 4.32 4L4.32 4Q4.05 3.65 4.05 3.24L4.05 3.24Q4.05 2.75 4.54 2.43L4.54 2.43Q9.09-0.4 11.45-3.62 13.81-6.84 14.63-10.15 15.43-13.46 15.52-17.82L15.52-17.82 4.91-17.82Q4.37-17.82 4.07-18.18 3.78-18.54 3.78-18.95L3.78-18.95Q3.78-19.35 4.07-19.71 4.37-20.07 4.91-20.07L4.91-20.07 15.57-20.07 15.66-23.36Q15.66-23.89 16.02-24.16 16.38-24.43 16.83-24.43L16.83-24.43Q17.23-24.43 17.57-24.12 17.91-23.8 17.91-23.31L17.91-23.31 17.82-20.07 22.72-20.07ZM5.22-5.13Q4.86-4.63 4.27-4.63L4.27-4.63Q4-4.63 3.65-4.81L3.65-4.81Q3.1-5.17 3.1-5.76L3.1-5.76Q3.1-6.12 3.33-6.39L3.33-6.39Q6.17-10.08 8.32-14.04L8.32-14.04Q8.59-14.54 9.18-14.54L9.18-14.54Q9.58-14.54 9.9-14.31L9.9-14.31Q10.35-13.95 10.35-13.41L10.35-13.41Q10.35-13.05 10.17-12.73L10.17-12.73Q7.74-8.32 5.22-5.13L5.22-5.13ZM37.35-7.25Q37.71-6.88 37.71-6.43L37.71-6.43Q37.71-5.98 37.35-5.63L37.35-5.63Q36.95-5.31 36.54-5.31L36.54-5.31Q36.09-5.31 35.77-5.63L35.77-5.63 30.51-10.89Q30.2-11.21 30.2-11.61L30.2-11.61Q30.2-12.2 30.55-12.46L30.55-12.46Q30.87-12.78 31.32-12.78L31.32-12.78Q31.77-12.78 32.13-12.42L32.13-12.42 37.35-7.25ZM42.8 2.21Q45.49-1.21 46.76-3.49 48.02-5.76 48.78-9.76 49.55-13.77 49.55-20.65L49.55-20.65 49.55-34.47Q49.55-35.01 49.91-35.3 50.27-35.59 50.67-35.59L50.67-35.59Q51.08-35.59 51.44-35.3 51.8-35.01 51.8-34.47L51.8-34.47 51.8-19.75Q51.8-11.92 50.2-6.55 48.6-1.17 44.55 3.51L44.55 3.51Q44.19 3.96 43.7 3.96L43.7 3.96Q43.34 3.96 43.02 3.73L43.02 3.73Q42.57 3.42 42.57 2.88L42.57 2.88Q42.57 2.48 42.8 2.21L42.8 2.21ZM71.41 3.06L71.41-34.47Q71.41-35.01 71.78-35.3 72.13-35.59 72.54-35.59L72.54-35.59Q72.94-35.59 73.31-35.3 73.66-35.01 73.66-34.47L73.66-34.47 73.66 3.06Q73.66 3.6 73.31 3.89 72.94 4.18 72.54 4.18L72.54 4.18Q72.13 4.18 71.78 3.89 71.41 3.6 71.41 3.06L71.41 3.06ZM60.3 2.16L60.3-33.39Q60.3-33.93 60.66-34.22 61.02-34.52 61.42-34.52L61.42-34.52Q61.83-34.52 62.19-34.22 62.55-33.93 62.55-33.39L62.55-33.39 62.55 2.16Q62.55 2.7 62.19 2.99 61.83 3.28 61.42 3.28L61.42 3.28Q61.02 3.28 60.66 2.99 60.3 2.7 60.3 2.16L60.3 2.16ZM43.88-12.33Q43.65-11.47 42.8-11.47L42.8-11.47Q42.39-11.47 41.98-11.9 41.58-12.33 41.76-12.87L41.76-12.87Q43.6-18.63 44.73-24.34L44.73-24.34Q44.77-24.75 45.11-24.97 45.45-25.2 45.81-25.2L45.81-25.2Q46.3-25.2 46.66-24.79 47.02-24.39 46.89-23.76L46.89-23.76Q45.85-18.54 43.88-12.33L43.88-12.33ZM56.88-13.09L52.97-23.27Q52.88-23.54 52.88-23.67L52.88-23.67Q52.88-24.07 53.1-24.34 53.33-24.61 53.64-24.7L53.64-24.7Q53.91-24.79 54.05-24.79L54.05-24.79Q54.81-24.79 55.08-24.03L55.08-24.03 58.95-13.9Q59.04-13.63 59.04-13.5L59.04-13.5Q59.04-13.14 58.81-12.85 58.59-12.55 58.32-12.46L58.32-12.46Q58.05-12.38 57.91-12.38L57.91-12.38Q57.11-12.38 56.88-13.09L56.88-13.09ZM67.91-13.09L63.95-23.22 63.86-23.63Q63.86-23.98 64.06-24.28 64.26-24.57 64.58-24.66L64.58-24.66Q64.84-24.75 65.03-24.75L65.03-24.75Q65.83-24.75 66.06-24.03L66.06-24.03 69.97-13.9Q70.06-13.63 70.06-13.5L70.06-13.5Q70.06-13.14 69.84-12.85 69.61-12.55 69.34-12.46L69.34-12.46Q69.08-12.38 68.94-12.38L68.94-12.38Q68.13-12.38 67.91-13.09L67.91-13.09ZM83.79-20.43Q83.39-20.43 83.03-20.72 82.67-21.02 82.67-21.55L82.67-21.55 82.67-23.49Q82.67-25.88 84.15-27.4 85.64-28.93 88.52-28.93L88.52-28.93 97.34-28.93 97.34-31.99 97.34-32.04 84.83-32.04Q84.28-32.04 83.99-32.4 83.7-32.76 83.7-33.16L83.7-33.16Q83.7-33.57 83.99-33.93 84.28-34.29 84.83-34.29L84.83-34.29 112.05-34.29Q112.59-34.29 112.88-33.93 113.17-33.57 113.17-33.16L113.17-33.16Q113.17-32.76 112.88-32.4 112.59-32.04 112.05-32.04L112.05-32.04 99.59-32.04 99.59-31.99 99.59-28.93 108.36-28.93Q111.24-28.93 112.72-27.4 114.21-25.88 114.21-23.49L114.21-23.49 114.21-21.96Q114.21-21.42 113.85-21.13 113.49-20.84 113.09-20.84L113.09-20.84Q112.68-20.84 112.32-21.13 111.96-21.42 111.96-21.96L111.96-21.96 111.96-23.27Q111.96-26.68 107.91-26.68L107.91-26.68 99.59-26.68 99.59-22.05Q99.59-21.51 99.22-21.22 98.86-20.93 98.46-20.93L98.46-20.93Q98.06-20.93 97.69-21.22 97.34-21.51 97.34-22.05L97.34-22.05 97.34-26.68 88.97-26.68Q84.92-26.68 84.92-23.27L84.92-23.27 84.92-21.55Q84.92-21.02 84.56-20.72 84.19-20.43 83.79-20.43L83.79-20.43ZM93.64-24.7Q94.19-24.7 94.48-24.34 94.77-23.98 94.77-23.58L94.77-23.58Q94.77-23.18 94.48-22.81 94.19-22.45 93.64-22.45L93.64-22.45 88.25-22.45Q87.7-22.45 87.41-22.81 87.12-23.18 87.12-23.58L87.12-23.58Q87.12-23.98 87.41-24.34 87.7-24.7 88.25-24.7L88.25-24.7 93.64-24.7ZM103.19-22.45Q102.64-22.45 102.35-22.81 102.06-23.18 102.06-23.58L102.06-23.58Q102.06-23.98 102.35-24.34 102.64-24.7 103.19-24.7L103.19-24.7 108.54-24.7Q109.08-24.7 109.37-24.34 109.66-23.98 109.66-23.58L109.66-23.58Q109.66-23.18 109.37-22.81 109.08-22.45 108.54-22.45L108.54-22.45 103.19-22.45ZM93.64-20.75Q94.19-20.75 94.48-20.38 94.77-20.02 94.77-19.62L94.77-19.62Q94.77-19.21 94.48-18.86 94.19-18.5 93.64-18.5L93.64-18.5 88.25-18.5Q87.7-18.5 87.41-18.86 87.12-19.21 87.12-19.62L87.12-19.62Q87.12-20.02 87.41-20.38 87.7-20.75 88.25-20.75L88.25-20.75 93.64-20.75ZM103.14-18.5Q102.6-18.5 102.31-18.86 102.02-19.21 102.02-19.62L102.02-19.62Q102.02-20.02 102.31-20.38 102.6-20.75 103.14-20.75L103.14-20.75 108.58-20.75Q109.13-20.75 109.42-20.38 109.71-20.02 109.71-19.62L109.71-19.62Q109.71-19.21 109.42-18.86 109.13-18.5 108.58-18.5L108.58-18.5 103.14-18.5ZM115.52-10.98Q116.1-10.8 116.1-10.04L116.1-10.04Q116.1-9.67 116.01-9.49L116.01-9.49Q115.69-8.87 114.97-8.87L114.97-8.87Q114.84-8.87 114.48-8.96L114.48-8.96Q106.61-11.47 100.17-16.43L100.17-16.43Q99.54-16.92 99.16-17.12 98.78-17.32 98.41-17.32L98.41-17.32Q98.06-17.32 97.67-17.12 97.29-16.92 96.66-16.43L96.66-16.43Q90.36-11.79 82.48-9.04L82.48-9.04Q82.08-8.91 81.81-8.91L81.81-8.91Q81.14-8.91 80.82-9.36L80.82-9.36Q80.64-9.54 80.64-10.04L80.64-10.04Q80.64-10.8 81.22-10.98L81.22-10.98Q88.92-13.59 95-18.09L95-18.09Q96.16-18.95 97.02-19.35 97.88-19.75 98.59-19.75L98.59-19.75Q99.81-19.75 101.52-18.45L101.52-18.45Q107.55-13.77 115.52-10.98L115.52-10.98ZM100.17-9.67Q99.81-9.49 99.5-9.49L99.5-9.49Q98.95-9.49 98.59-10.04L98.59-10.04 96.44-13.05Q96.25-13.37 96.25-13.72L96.25-13.72Q96.25-14.4 96.75-14.63L96.75-14.63Q97.11-14.8 97.42-14.8L97.42-14.8Q97.97-14.8 98.33-14.26L98.33-14.26 100.48-11.25Q100.66-10.93 100.66-10.57L100.66-10.57Q100.66-9.9 100.17-9.67L100.17-9.67ZM106.74-8.73Q107.86-8.73 108.5-8.1 109.13-7.47 109.13-6.52L109.13-6.52Q109.13-5.89 108.79-5.29 108.45-4.68 107.86-4.23L107.86-4.23Q104.89-2.07 101.03 0.27L101.03 0.27 106.02 2.02Q106.52 2.21 106.72 2.63 106.92 3.06 106.78 3.46L106.78 3.46Q106.69 3.78 106.38 4.03 106.06 4.27 105.7 4.27L105.7 4.27Q105.57 4.27 105.3 4.18L105.3 4.18Q96.08 0.9 88.69-1.4L88.69-1.4Q88.33-1.53 88.13-1.84 87.93-2.16 87.93-2.52L87.93-2.52Q87.93-2.79 87.97-2.92L87.97-2.92Q88.06-3.19 88.36-3.4 88.65-3.6 89.06-3.6L89.06-3.6Q89.33-3.6 89.46-3.55L89.46-3.55Q92.43-2.65 98.28-0.67L98.28-0.67Q102.69-3.28 106.25-5.89L106.25-5.89Q106.56-6.12 106.56-6.25L106.56-6.25Q106.56-6.48 105.39-6.48L105.39-6.48 86.63-6.48Q86.08-6.48 85.79-6.84 85.5-7.2 85.5-7.6L85.5-7.6Q85.5-8.01 85.79-8.37 86.08-8.73 86.63-8.73L86.63-8.73 106.74-8.73ZM132.25-20.61L128.12-20.61 128.12 3.24Q128.12 3.78 127.75 4.07 127.39 4.37 126.99 4.37L126.99 4.37Q126.58 4.37 126.22 4.07 125.86 3.78 125.86 3.24L125.86 3.24 125.86-13.72Q124.06-9.13 121.95-5.4L121.95-5.4Q121.59-4.77 120.92-4.77L120.92-4.77Q120.64-4.77 120.42-4.91L120.42-4.91Q119.83-5.31 119.83-5.98L119.83-5.98Q119.83-6.25 119.97-6.52L119.97-6.52Q123.89-13.32 125.82-20.61L125.82-20.61 121.36-20.61Q120.83-20.61 120.53-20.97 120.24-21.33 120.24-21.73L120.24-21.73Q120.24-22.14 120.53-22.5 120.83-22.86 121.36-22.86L121.36-22.86 125.86-22.86 125.86-30.02Q123.8-29.52 121.81-29.2L121.81-29.2Q121.19-29.11 120.85-29.47 120.51-29.83 120.51-30.33L120.51-30.33Q120.51-30.73 120.73-31.03 120.96-31.32 121.41-31.36L121.41-31.36Q127.66-32.58 131.99-33.75L131.99-33.75 132.34-33.84Q132.71-33.84 132.97-33.59 133.25-33.34 133.34-33.03L133.34-33.03Q133.38-32.94 133.38-32.71L133.38-32.71Q133.38-31.9 132.57-31.63L132.57-31.63Q129.19-30.78 128.12-30.51L128.12-30.51 128.12-22.86 132.25-22.86Q132.79-22.86 133.09-22.5 133.38-22.14 133.38-21.73L133.38-21.73Q133.38-21.33 133.09-20.97 132.79-20.61 132.25-20.61L132.25-20.61ZM141.62-21.42Q138.47-21.42 136.89-23.06 135.31-24.7 135.31-27.13L135.31-27.13 135.31-27.63Q135.31-30.06 136.89-31.7 138.47-33.34 141.62-33.34L141.62-33.34 146.25-33.34Q149.4-33.34 150.97-31.7 152.55-30.06 152.55-27.63L152.55-27.63 152.55-27.13Q152.55-24.7 150.97-23.06 149.4-21.42 146.25-21.42L146.25-21.42 141.62-21.42ZM137.56-27.4L137.56-27.36Q137.56-25.74 138.58-24.7 139.59-23.67 142.06-23.67L142.06-23.67 145.8-23.67Q148.28-23.67 149.29-24.7 150.3-25.74 150.3-27.36L150.3-27.36 150.3-27.4Q150.3-31.09 145.8-31.09L145.8-31.09 142.06-31.09Q137.56-31.09 137.56-27.4L137.56-27.4ZM154.44-0.14Q154.98-0.14 155.27 0.22 155.56 0.58 155.56 0.99L155.56 0.99Q155.56 1.4 155.27 1.75 154.98 2.11 154.44 2.11L154.44 2.11 132.75 2.11Q132.21 2.11 131.92 1.75 131.63 1.4 131.63 0.99L131.63 0.99Q131.63 0.58 131.92 0.22 132.21-0.14 132.75-0.14L132.75-0.14 142.78-0.14 142.78-6.25 135.63-6.25Q135.09-6.25 134.8-6.61 134.5-6.97 134.5-7.38L134.5-7.38Q134.5-7.79 134.8-8.14 135.09-8.5 135.63-8.5L135.63-8.5 142.78-8.5 142.78-14.49 134.91-14.49Q134.37-14.49 134.08-14.85 133.78-15.21 133.78-15.62L133.78-15.62Q133.78-16.02 134.08-16.38 134.37-16.74 134.91-16.74L134.91-16.74 153.27-16.74Q153.81-16.74 154.1-16.38 154.39-16.02 154.39-15.62L154.39-15.62Q154.39-15.21 154.1-14.85 153.81-14.49 153.27-14.49L153.27-14.49 145.03-14.49 145.03-8.5 152.24-8.5Q152.78-8.5 153.07-8.14 153.36-7.79 153.36-7.38L153.36-7.38Q153.36-6.97 153.07-6.61 152.78-6.25 152.24-6.25L152.24-6.25 145.03-6.25 145.03-0.14 154.44-0.14ZM133.16-9.04Q132.84-8.82 132.53-8.82L132.53-8.82Q132.03-8.82 131.63-9.36L131.63-9.36 128.34-13.9Q128.12-14.26 128.12-14.58L128.12-14.58Q128.12-15.21 128.61-15.52L128.61-15.52Q128.93-15.75 129.24-15.75L129.24-15.75Q129.78-15.75 130.19-15.21L130.19-15.21 133.51-10.66Q133.74-10.39 133.74-9.99L133.74-9.99Q133.74-9.45 133.16-9.04L133.16-9.04Z" transform="translate(-2.069999933242798, 36)"></path></g> <!----> <!----> <!----> <!----> <!----> <!----> <!----></g></g> <g data-gra="path-slogan" fill-rule="" class="tp-slogan iconsvg-slogansvg" fill="#141011" transform="translate(3.3841705322265625,46.459999084472656)"><!----> <!----> <g transform="scale(1, 1)"><g transform="scale(1)"><path d="M7.17-6.09L7.17-6.09L6.09-6.09Q6-7.73 3.94-7.83L3.94-7.83Q2.02-7.78 2.02-6.33L2.02-6.33Q2.02-5.39 3.05-5.25L3.05-5.25L5.48-4.69Q7.41-4.22 7.41-2.34L7.41-2.34Q7.36 0.05 4.03 0.14L4.03 0.14Q2.20 0.14 1.45-0.61L1.45-0.61Q0.52-1.31 0.56-2.77L0.56-2.77L1.69-2.77Q1.73-0.80 4.03-0.75L4.03-0.75Q6.28-0.80 6.33-2.20L6.33-2.20Q6.52-3.38 4.45-3.75L4.45-3.75L2.67-4.13Q0.84-4.64 0.84-6.19L0.84-6.19Q0.98-8.72 3.84-8.81L3.84-8.81Q7.08-8.81 7.17-6.09ZM14.53-3.19L14.53-8.58L15.70-8.58L15.70-3.05Q15.56 0.05 12.19 0.14L12.19 0.14Q9.05 0.05 8.91-2.86L8.91-2.86L8.91-8.58L10.08-8.58L10.08-3.19Q10.13-0.84 12.23-0.80L12.23-0.80Q14.53-0.84 14.53-3.19L14.53-3.19ZM18.33-1.03L23.63-1.03L23.63 0L16.88 0L16.88-0.94L22.13-7.59L17.25-7.59L17.25-8.58L23.63-8.58L23.63-7.59L18.33-1.03ZM25.92-5.06L30.42-5.06L30.42-8.58L31.59-8.58L31.59 0L30.42 0L30.42-3.98L25.92-3.98L25.92 0L24.75 0L24.75-8.58L25.92-8.58L25.92-5.06ZM40.17-4.27L40.17-4.27Q39.98-7.64 37.17-7.83L37.17-7.83Q34.31-7.69 34.17-4.27L34.17-4.27Q34.31-0.94 37.17-0.80L37.17-0.80Q39.98-0.98 40.17-4.27ZM41.34-4.27L41.34-4.27Q41.06 0 37.17 0.14L37.17 0.14Q33.23 0 32.95-4.27L32.95-4.27Q33.19-8.72 37.17-8.81L37.17-8.81Q41.06-8.67 41.34-4.27ZM48.38-3.19L48.38-8.58L49.55-8.58L49.55-3.05Q49.41 0.05 46.03 0.14L46.03 0.14Q42.89 0.05 42.75-2.86L42.75-2.86L42.75-8.58L43.92-8.58L43.92-3.19Q43.97-0.84 46.08-0.80L46.08-0.80Q48.38-0.84 48.38-3.19L48.38-3.19ZM55.50-1.03L60.80-1.03L60.80 0L54.05 0L54.05-0.94L59.30-7.59L54.42-7.59L54.42-8.58L60.80-8.58L60.80-7.59L55.50-1.03ZM63.23-1.03L68.39-1.03L68.39 0L62.06 0L62.06-8.58L68.30-8.58L68.30-7.59L63.23-7.59L63.23-4.92L67.92-4.92L67.92-3.89L63.23-3.89L63.23-1.03ZM74.02-3.70L71.20-3.70L71.20 0L70.03 0L70.03-8.58L74.02-8.58Q76.88-8.58 76.88-6.28L76.88-6.28Q76.88-4.88 75.66-4.22L75.66-4.22Q76.69-3.94 76.69-2.58L76.69-2.58L76.78-1.03Q76.73-0.38 77.20-0.19L77.20-0.19L77.20 0L75.75 0Q75.61-0.61 75.56-2.16L75.56-2.16Q75.61-3.70 74.02-3.70L74.02-3.70ZM74.11-7.64L71.20-7.64L71.20-4.69L73.92-4.69Q75.66-4.69 75.66-6.19L75.66-6.19Q75.66-7.64 74.11-7.64L74.11-7.64ZM85.31-4.27L85.31-4.27Q85.13-7.64 82.31-7.83L82.31-7.83Q79.45-7.69 79.31-4.27L79.31-4.27Q79.45-0.94 82.31-0.80L82.31-0.80Q85.13-0.98 85.31-4.27ZM86.48-4.27L86.48-4.27Q86.20 0 82.31 0.14L82.31 0.14Q78.38 0 78.09-4.27L78.09-4.27Q78.33-8.72 82.31-8.81L82.31-8.81Q86.20-8.67 86.48-4.27ZM90.47-1.92L90.47-2.77L91.55-2.77L91.55-2.16Q91.55-0.75 92.86-0.75L92.86-0.75Q94.22-0.75 94.22-2.25L94.22-2.25L94.22-8.58L95.39-8.58L95.39-2.30Q95.34 0.09 92.91 0.14L92.91 0.14Q90.61 0.09 90.47-1.92L90.47-1.92ZM103.97-4.27L103.97-4.27Q103.78-7.64 100.97-7.83L100.97-7.83Q98.11-7.69 97.97-4.27L97.97-4.27Q98.11-0.94 100.97-0.80L100.97-0.80Q103.78-0.98 103.97-4.27ZM105.14-4.27L105.14-4.27Q104.86 0 100.97 0.14L100.97 0.14Q97.03 0 96.75-4.27L96.75-4.27Q96.98-8.72 100.97-8.81L100.97-8.81Q104.86-8.67 105.14-4.27ZM112.17-3.19L112.17-8.58L113.34-8.58L113.34-3.05Q113.20 0.05 109.83 0.14L109.83 0.14Q106.69 0.05 106.55-2.86L106.55-2.86L106.55-8.58L107.72-8.58L107.72-3.19Q107.77-0.84 109.88-0.80L109.88-0.80Q112.17-0.84 112.17-3.19L112.17-3.19ZM119.25-3.70L116.44-3.70L116.44 0L115.27 0L115.27-8.58L119.25-8.58Q122.11-8.58 122.11-6.28L122.11-6.28Q122.11-4.88 120.89-4.22L120.89-4.22Q121.92-3.94 121.92-2.58L121.92-2.58L122.02-1.03Q121.97-0.38 122.44-0.19L122.44-0.19L122.44 0L120.98 0Q120.84-0.61 120.80-2.16L120.80-2.16Q120.84-3.70 119.25-3.70L119.25-3.70ZM119.34-7.64L116.44-7.64L116.44-4.69L119.16-4.69Q120.89-4.69 120.89-6.19L120.89-6.19Q120.89-7.64 119.34-7.64L119.34-7.64ZM125.16-8.58L129.47-1.64L129.47-8.58L130.59-8.58L130.59 0L129.28 0L124.92-6.94L124.88-6.94L124.88 0L123.75 0L123.75-8.58L125.16-8.58ZM133.69-1.03L138.84-1.03L138.84 0L132.52 0L132.52-8.58L138.75-8.58L138.75-7.59L133.69-7.59L133.69-4.92L138.38-4.92L138.38-3.89L133.69-3.89L133.69-1.03ZM147.28-8.58L144.05-3.47L144.05 0L142.88 0L142.88-3.47L139.64-8.58L141-8.58L143.44-4.45L145.92-8.58L147.28-8.58Z" transform="translate(-0.5602678571428572, 8.8125)"></path></g></g></g></g></g><defs v-gra="od"></defs></svg>